<?xml version="1.0" encoding="UTF-8"?>
<svg id="Layer_1" data-name="Layer 1" xmlns="http://www.w3.org/2000/svg" version="1.1" viewBox="0 0 1080 1080">
  <defs>
    <style>
      .cls-1 {
        fill: white;
        stroke-width: 0px;
      }
    </style>
  </defs>
  <path class="cls-1" d="M420.56,593.38c.72,1.85-.36,2.36-1.3,2.89-4.83,2.71-9.59,5.54-14.52,8.05-8.55,4.35-17.63,7.4-26.84,9.98-9.41,2.64-19.03,4.26-28.77,5.38-10.21,1.18-20.4,1.19-30.61,1.06-4.76-.06-9.52-.68-14.28-1.08-2.27-.19-4.54-.43-6.8-.69-7.05-.81-13.95-2.41-20.59-4.8-8.18-2.94-16.08-6.63-23.29-11.59-3.31-2.27-6.58-4.61-9.74-7.08-5.44-4.26-9.86-9.45-13.53-15.31-4.81-7.7-8.67-15.87-11-24.61-1.59-5.95-2.52-12.11-3.3-18.23-.57-4.51-.62-9.12-.53-13.67.08-3.89.51-7.8,1.11-11.65.68-4.39,1.36-8.83,2.66-13.07,2.99-9.77,6.56-19.34,11.85-28.15,3.3-5.5,6.46-11.1,10.12-16.35,4.72-6.76,9.76-13.31,14.9-19.77,5.81-7.3,11.59-14.67,17.93-21.51,5.38-5.8,11.25-11.23,17.45-16.15,4.9-3.89,10.5-6.95,16.82-8.32,3.49-.75,6.6-.44,9.57,1.74,9.12,6.7,17.96,13.72,25.79,21.94,3.22,3.38,6.45,6.76,9.53,10.28,3.09,3.52,4.18,7.55,3.56,12.36-.94,7.3-4.12,13.72-7.2,20.16-1.9,3.99-4.45,7.69-6.91,11.39-2.35,3.54-5.98,5.31-9.98,6.28-3.1.75-5.89-1.05-6.24-4.13-.42-3.77-.59-7.57-.74-11.37-.13-3.16,1.33-5.35,4.3-6.62,2.9-1.23,5.79-2.52,8.57-3.99,1.71-.91,3.31-2.09,4.77-3.37,2.05-1.81,2.37-3.84.81-6.11-1.71-2.5-3.72-4.8-5.63-7.16-2.73-3.38-5.36-6.86-8.29-10.06-3.24-3.54-6.85-6.61-11.81-7.73-4.13-.93-8.03-.25-11.79,1.24-4.36,1.72-8.2,4.31-11.96,7.16-4.79,3.62-9.27,7.53-13.45,11.8-6.15,6.3-11.88,12.98-17.27,19.95-9.95,12.87-17.81,26.98-25.2,41.42-3.53,6.91-6.44,14.02-8.78,21.37-3.37,10.61-5.57,21.44-4.84,32.68.64,9.95,4.09,18.79,10.27,26.62,6.83,8.65,15.7,14.62,25.41,19.45,10.98,5.46,22.62,8.76,34.77,10.56,8.34,1.24,16.68,1.27,25.05,1.27,6.75,0,13.51.16,20.24-.24,8.77-.52,17.53-1.42,26.27-2.36,6.36-.69,12.73-1.5,19.03-2.63,7.8-1.4,15.54-3.13,23.28-4.83,2.43-.53,4.76-1.52,7.19-2.11,1.3-.31,2.71-.21,3.93-.29Z"/>
  <path class="cls-1" d="M532.55,582.83c-.7.48-1.57.86-2.17,1.5-4.44,4.77-8.81,9.61-13.26,14.38-1.25,1.35-2.6,2.63-4.04,3.77-.84.67-2.03,1.1-2.98.14-.96-.98-.96-2.23-.17-3.29,1.44-1.91,2.96-3.75,4.51-5.56,6.32-7.37,12.18-15.05,15.84-24.15,2.19-5.44,4.24-10.94,6.35-16.42,2.69-7,5.33-14.03,8.06-21.01,3.8-9.71,7.57-19.44,11.53-29.09,2.59-6.32,5.47-12.52,8.23-18.77,4.12-9.34,8.06-18.76,12.4-28,5.12-10.92,10.53-21.71,15.9-32.52,5.85-11.78,12.59-23.08,19.77-34.07,5.57-8.53,11.31-17.04,18.96-23.97,2.24-2.03,4.67-3.91,7.22-5.54,3.21-2.05,6.24-.76,6.73,3.02.41,3.2.41,6.54-.02,9.74-1.19,8.77-4.01,17.14-7.41,25.26-4.57,10.91-9.24,21.8-14.32,32.48-4.56,9.59-9.69,18.92-14.66,28.33-4.36,8.27-8.73,16.54-13.3,24.7-3.4,6.06-7.18,11.9-10.69,17.89-4.06,6.93-7.96,13.96-12.03,20.88-4.01,6.83-8.16,13.59-12.24,20.39-4.52,7.55-8.95,15.16-13.6,22.63-1.74,2.8-3.42,5.5-3.77,8.88-.64,6.13,2.11,13.22,9.67,15.48,3.25.97,6.49,2.12,9.81,1.87,3.1-.23,6.13-1.35,9.18-2.1.52-.13,1-.51,1.52-.58,1.25-.15,2.51-.19,4.47-.31-.58,1.27-.72,2.18-1.24,2.62-1.98,1.68-3.94,3.45-6.16,4.77-5.91,3.5-12.12,6.22-19.01,7.4-6.21,1.06-11.64-2.03-14.65-6.91-2.22-3.59-3.43-7.48-3.59-11.7-.02-.43-.06-.87-.16-1.29-.04-.18-.26-.33-.68-.84ZM639.02,372.92c-.24-.11-.47-.23-.71-.34-.8.8-1.78,1.48-2.35,2.41-2.06,3.32-4.08,6.66-5.92,10.1-3.29,6.12-6.45,12.31-9.64,18.49-3.19,6.17-6.44,12.3-9.48,18.53-5.61,11.51-11.07,23.09-16.62,34.63-3.29,6.84-6.64,13.65-9.92,20.49-4.6,9.58-9.17,19.18-13.75,28.77-.49,1.03-.5,1.03-.43,2.55,2.99-4.66,6.2-9.38,9.13-14.28,4.9-8.21,9.62-16.53,14.39-24.81,4.66-8.1,9.29-16.21,13.93-24.32,3.83-6.7,7.89-13.27,11.42-20.12,4.27-8.29,8.2-16.75,12.07-25.24,3.53-7.74,6.06-15.83,7.66-24.19.17-.87.16-1.78.24-2.67Z"/>
  <path class="cls-1" d="M720.14,565.88c1.6-.73,3.04-1.2,4.29-1.98,5.53-3.44,10.97-7.04,16.52-10.46,5.08-3.12,10.24-6.12,15.41-9.09,1.12-.64,2.41-1.01,3.65-1.39,2.52-.77,4.33.35,4.57,2.98.16,1.72.2,3.52-.11,5.2-.8,4.26-1.66,8.53-2.82,12.71-1.82,6.6-3.91,13.12-5.86,19.69-.37,1.25-.74,2.51-.94,3.8-.4,2.67.64,4.03,3.32,3.95,2.15-.06,4.34-.38,6.41-.94,3.24-.88,6.41-2.03,9.59-3.12,1.28-.44,2.49-.79,3.78.34.24,2.11-1.22,3.4-2.74,4.31-4.95,2.94-9.94,5.8-15.06,8.44-2.49,1.28-5.32,1.86-7.91,2.97-3.1,1.33-6.4,1.14-9.61,1.55-1.85.23-2.84-.76-2.81-2.69.01-.96.22-1.95.53-2.86,2.36-6.88,4.9-13.71,7.11-20.64,1.71-5.37,3.04-10.87,4.52-16.31.14-.52.21-1.08.17-1.61-.15-2.06-1.65-2.94-3.38-1.88-1.75,1.08-3.41,2.31-5.05,3.55-6.22,4.72-12.44,9.44-18.61,14.23-4.63,3.6-9.06,7.48-13.81,10.91-5.89,4.25-11.99,8.22-18.09,12.17-1.52.98-3.33,1.64-5.1,2.03-1.02.22-2.51-.06-3.28-.71-1.07-.9-.79-2.44-.16-3.64,1.75-3.37,3.43-6.79,5.41-10.03,3.95-6.49,8.18-12.82,12.11-19.32,3.31-5.47,6.7-10.93,8.56-17.13.25-.83.55-1.66.72-2.51.33-1.7.04-3.28-1.3-4.49-1.4-1.26-3.08-1.13-4.58-.35-3.37,1.75-6.88,3.33-9.92,5.55-9.29,6.77-18.39,13.81-27.56,20.74-.35.26-.71.49-1.08.73-1.05.66-2.22.67-3-.18-.57-.63-.92-1.69-.91-2.55.01-2.27,1.56-3.74,3.17-5.07,2.51-2.08,5.01-4.17,7.56-6.18,5.88-4.64,11.67-9.4,17.71-13.82,9.02-6.6,17.81-13.55,27.51-19.16,2.82-1.63,5.76-3.07,8.7-4.46,1.05-.5,2.29-.76,3.46-.84,1.96-.14,3.18.84,3.3,2.79.1,1.61.19,3.38-.36,4.83-2.96,7.82-6.08,15.58-9.22,23.32-1.47,3.62-3.15,7.16-4.65,10.77-1.01,2.43-.97,2.97-.16,5.87Z"/>
  <path class="cls-1" d="M504.46,584.36c.1,2.5-1.54,3.3-3.03,4.04-6.12,3.03-12.39,5.76-18.42,8.97-9.92,5.29-20.16,6.38-30.89,3.15-1.87-.56-3.74-1.13-5.56-1.84-4.47-1.76-7.14-5.16-8.46-9.69-.43-1.46-.72-2.95-1.1-4.42-.74-2.92-.91-3.03-4.01-2.99-1.85.03-3.7.06-5.54,0-1.4-.04-3.02.09-3.64-1.52-.59-1.52.73-2.4,1.65-3.26,4.92-4.6,9.93-9.09,14.81-13.73,1.38-1.32,2.56-2.91,3.58-4.53,3.62-5.79,6.81-11.86,11.56-16.88,3.05-3.22,5.79-6.73,9.94-8.77,3.26-1.61,6.53-2.95,10.23-2.8,2.59.1,5.24.05,7.76.57,4.92,1.01,6.84,4.44,5.25,9.24-1.34,4.06-3.7,7.58-6.47,10.82-6.55,7.67-14.63,13.52-22.82,19.25-.79.55-1.7.94-2.54,1.44-3.25,1.91-5.25,6.24-3.51,9.8,1.07,2.2,2.8,3.69,5.06,4.19,3.16.71,6.41,1.17,9.64,1.4,4.85.35,9.75.75,14.59.48,5.4-.3,10.75-1.33,16.12-2.06,1.89-.26,3.78-.55,5.82-.85ZM457.54,558.74c1.15-.28,1.75-.26,2.13-.54,4.75-3.41,9.54-6.78,14.17-10.35,1.24-.95,2.1-2.48,2.9-3.88.94-1.63.66-3.1-.46-4.17-1.26-1.21-2.97-1.62-4.48-.82-1.03.55-1.99,1.32-2.83,2.14-4.47,4.36-7.5,9.78-10.84,14.96-.36.56-.32,1.37-.6,2.65Z"/>
  <path class="cls-1" d="M864.56,584.48c-.37,2.21-1.59,3.1-2.95,3.77-4.57,2.26-9.17,4.45-13.76,6.67-2.93,1.42-5.79,2.98-8.78,4.27-7.62,3.28-15.51,3.97-23.59,2-2.53-.62-5.11-1.14-7.55-2.02-5.65-2.03-9.11-5.91-10.23-12-1.12-6.11-.99-5.7-6.56-5.54-1.52.04-3.05.01-4.57-.05-1.26-.05-2.62-.43-2.75-1.8-.09-.93.44-2.16,1.1-2.88,1.4-1.5,3.07-2.74,4.62-4.11,3.18-2.79,6.29-5.67,9.55-8.37,3.99-3.31,5.89-8.03,8.54-12.24,3.79-6.02,8.07-11.61,13.43-16.31,4.04-3.55,8.83-5.53,14.23-5.81,3.48-.18,6.94-.17,10.27,1.26,2.17.93,3.15,2.39,3.38,4.7.35,3.62-1.23,6.58-3.02,9.44-2.79,4.43-6.3,8.22-10.15,11.81-5.92,5.51-12.52,10.02-19.29,14.35-3.27,2.09-4.71,5.3-3.58,8.6.93,2.74,2.92,4.71,5.77,5.21,4.7.82,9.46,1.84,14.19,1.79,8.75-.09,17.58.19,26.19-2.12,1.63-.44,3.39-.41,5.5-.65ZM817.47,558.8c1.4-.56,2.27-.75,2.97-1.21,3.34-2.22,6.64-4.5,9.93-6.79,2.42-1.69,4.55-3.69,6.1-6.25.98-1.62.96-3.84-.04-4.88-1.24-1.28-3.41-1.56-5.13-.48-1,.62-1.92,1.43-2.73,2.3-4.28,4.53-7.26,9.98-10.62,15.16-.26.4-.23.99-.48,2.16Z"/>
  <path class="cls-1" d="M581.63,598.27c1.94-1.51,3.59-3.1,5.5-4.25,6.9-4.15,13.41-8.85,19.46-14.15,2.85-2.49,5.69-5.1,7.96-8.1,2.14-2.82,3.57-6.19,5.25-9.34,1.84-3.45,3.57-6.96,5.44-10.39.51-.93,1.26-1.79,2.08-2.48,2.68-2.28,5.77-1.57,6.58,1.81.62,2.58.74,5.41.44,8.06-.75,6.79-1.93,13.54-2.78,20.33-.28,2.25-.27,4.57-.1,6.84.26,3.66,2.33,6.01,5.97,6.78,5.97,1.26,11.88.8,17.72-.88,1.19-.34,2.4-.66,3.92-1.08-.07,2.96-1.95,4.22-3.52,5.22-3.57,2.26-7.28,4.36-11.14,6.07-3.98,1.76-8.16,2.73-12.69,1.98-4.3-.72-7.05-3.24-9.08-6.69-1.26-2.13-2.03-4.55-2.99-6.86-2.43-5.81-2.72-5.81-8.39-3.21-6.8,3.11-13.37,6.72-20.09,10.03-1.84.91-3.82,1.57-5.76,2.27-1.57.57-2.73.02-3.79-1.96Z"/>
  <path class="cls-1" d="M682.95,468.61c-.37,2.32-1.62,3.45-3.11,4.47-2.06,1.41-4.08,2.86-6.08,4.36-3.25,2.44-4.45,6.37-6.78,9.49-1.1,1.48-1.83,3.22-2.92,4.7-2.63,3.57-5.29,7.13-8.08,10.56-5,6.15-9.9,12.4-15.69,17.86-.63.6-1.22,1.28-1.95,1.72-1.08.66-2.24-.09-2.21-1.38,0-.42.17-.85.3-1.26,2.2-7.06,3.92-14.32,6.74-21.12,3.73-9,7.58-18.08,14.19-25.5,4.33-4.86,9.42-8.56,16.39-7.83,2.54.27,5.02,1.27,7.45,2.16.78.29,1.3,1.29,1.75,1.77Z"/>
  <path class="cls-1" d="M392.1,678.16c1-.52,1.94-1.04,2.9-1.52,6.33-3.13,14.03-2.13,18.38,3.32.41.51.82,1.02,1.15,1.57,3.52,5.89,2.86,16.05-1.57,21.23-3.29,3.84-7.78,5.13-12.66,4.5-2.64-.34-5.19-1.41-7.87-2.18-.95,1.54-1.17,8.1-.21,11.77,1.89.83,3.97.33,5.99.45,2.11.13,3.19.65,3.02,1.69-.29,1.72-1.67,1.74-3.02,1.73-4.24-.01-8.48,0-12.72-.01-.54,0-1.16.08-1.6-.15-.52-.27-1.25-.87-1.22-1.27.04-.62.54-1.46,1.07-1.72.83-.4,1.86-.39,2.73-.55.76-2.64.85-33.49.08-36.73-1.09,0-2.24.01-3.39,0-1.02-.02-1.78-.56-1.7-1.55.05-.62.59-1.55,1.11-1.71,1.96-.61,4-.98,6.02-1.4,1.97-.41,2.37,1.55,3.53,2.53ZM391.69,691.12h-.01c0,1.96.03,3.91-.01,5.87-.03,1.41.5,2.49,1.55,3.42,2.78,2.46,6.1,3.26,9.67,3.05,2.73-.16,4.93-1.45,6.72-3.56,4.1-4.82,3.69-14.24-.86-18.62-3.58-3.45-10.75-3.22-14.98.44-1.39,1.21-2.25,2.56-2.11,4.51.12,1.62.02,3.26.02,4.89Z"/>
  <path class="cls-1" d="M680.53,680.6c.12,2.9,5.86,16.82,7.98,19.6,1.65-1.44,5.52-10.73,7.94-19.15-.63-.25-1.26-.62-1.94-.73-1.24-.19-2.09-.74-2.1-2.05-.01-1.26,1.05-1.68,2.01-1.73,3.66-.19,7.35-.53,11.18.34v2.99c-.67.17-1.17.39-1.69.42-1.77.1-2.64,1.1-3.25,2.7-3.23,8.54-6.46,17.09-9.88,25.56-1.17,2.9-2.7,5.71-4.44,8.31-2.02,3.03-5.07,4.27-8.77,3.79-1.08-.14-1.98-.42-2.15-1.58-.18-1.24.5-2.07,1.63-2.51.4-.16.84-.26,1.26-.29,3.25-.17,5.07-2.19,6.34-4.89.46-.98.98-1.99,1.15-3.04.17-1,.22-2.19-.17-3.09-3.19-7.39-6.51-14.72-9.73-22.08-.76-1.74-1.75-2.96-3.85-2.89-1.16.04-2.24-.25-2.3-1.71-.07-1.61,1.11-2.07,2.36-2.1,3.26-.09,6.53-.08,9.79-.03,1.12.02,2.29.36,2.39,1.73.11,1.53-.98,2.02-2.31,2.15-.42.04-.83.16-1.45.29Z"/>
  <path class="cls-1" d="M580.67,692.17c-.45,4.58,1.82,8.59,5.84,10.2,5.63,2.25,11.06,1.94,16.08-1.76.35-.26.66-.57,1.02-.81.96-.66,1.99-1.08,2.89,0,.82.98.69,2.25-.15,2.98-1.46,1.26-3.04,2.58-4.8,3.24-4.23,1.59-8.61,1.98-13.14,1.08-7.25-1.45-12.71-7.91-12.64-15.29.05-5.86,1.63-10.83,6.78-13.92,5.94-3.57,12.25-4.3,18.62-.95,4.33,2.28,5.92,6.19,5.96,10.83.02,2.67-1.1,3.72-3.8,3.78-6.52.17-13.05.27-19.58.41-1.05.02-2.09.14-3.08.21ZM580.58,687.73c3.43.72,19.65.62,22.21-.06.45-4.2-2.32-7.78-6.9-8.58-3.24-.57-6.48-.36-9.54,1.08-3.15,1.49-5.05,3.92-5.78,7.55Z"/>
  <path class="cls-1" d="M463.91,691.41c.1,5.93-1.85,10.85-7.18,14-6.78,4.01-16.73,2.68-21.87-3.07-4.23-4.73-4.61-10.4-3.2-16.23,1.67-6.87,6.98-10.56,14.34-11.09,3.37-.24,6.67.05,9.82,1.65,4.91,2.49,7.42,6.49,8.07,11.81.12.96.02,1.95.02,2.93ZM447.85,678.88c-7.03-.14-11.52,4.01-11.84,11.01-.06,1.41-.04,2.83.11,4.23.46,4.19,3.5,8.34,8.28,9.31,5.28,1.06,10.65-.57,12.91-4.59,1.04-1.85,1.82-4.04,1.98-6.14.53-7.04-2.94-13.87-11.45-13.81Z"/>
  <path class="cls-1" d="M535.31,676.14c0-1.76-.02-3.14,0-4.53.03-1.19.03-2.4.21-3.57.2-1.32,1.01-2.15,2.44-2.12,1.68.03,1.81,1.23,1.83,2.5.02,2.47.05,4.94.07,7.7,1.52.08,2.68.19,3.84.21,3.04.04,6.09-.01,9.13.07,1.11.03,2.23.34,2.37,1.74.11,1.12-.84,2.03-2.41,2.09-2.82.1-5.65.05-8.47.06-1.28,0-2.56,0-4.06,0-.19,1.11-.44,1.93-.44,2.75-.04,5,.05,10-.05,15-.08,3.69,1.99,5.33,5.35,5.63,3,.26,5.81-.53,8.54-1.69.7-.3,1.34-.8,2.05-.94.66-.12,1.8-.08,1.99.28.34.65.41,1.73.09,2.37-.35.7-1.2,1.26-1.96,1.62-4.45,2.08-9.13,2.85-13.96,1.76-4.47-1.01-6.57-3.75-6.58-8.36-.02-4.89,0-9.78,0-14.67,0-1.06-.11-2.12-.19-3.42-1.16-.13-2.09-.25-3.03-.33-.65-.05-1.31-.01-1.95-.08-1.13-.12-1.8-.74-1.82-1.9-.02-1.24.86-1.72,1.9-1.83,1.5-.17,3.01-.2,5.13-.33Z"/>
  <path class="cls-1" d="M492.01,680.27c-.18,1.35-.38,2.19-.38,3.03-.03,4.68.03,9.36-.02,14.04-.04,4.3,1.93,6.48,6.42,6.25,2.44-.12,4.85-.96,7.26-1.55.94-.23,1.8-.87,2.73-.98.62-.07,1.6.31,1.87.8.29.51.12,1.48-.18,2.08-.26.52-.93.92-1.5,1.18-4.56,2.05-9.28,3.1-14.28,1.94-4.42-1.03-6.86-4.05-6.87-8.53-.01-4.79,0-9.58-.02-14.37,0-1.16-.17-2.31-.28-3.73-1.56-.07-2.83-.14-4.11-.18-1.32-.04-2.51-.38-2.48-1.93.03-1.51,1.23-1.92,2.53-1.97,1.28-.05,2.56,0,4.15,0,.1-2.07.12-3.78.29-5.47.13-1.29.25-2.64.76-3.79.25-.58,1.41-1.15,2.06-1.06.61.09,1.43,1,1.55,1.66.26,1.37.09,2.82.14,4.23.05,1.28.15,2.55.25,4.11,1.28.12,2.32.29,3.36.3,2.72.04,5.44,0,8.16.02.75,0,1.64-.07,2.22.28.65.4,1.42,1.27,1.39,1.9-.03.58-.95,1.38-1.64,1.61-.89.29-1.94.14-2.91.14-3.36,0-6.72,0-10.46,0Z"/>
  <path class="cls-1" d="M650.54,679.4c-4.65-.91-10.33,1.45-12.44,5.1-.52.9-.85,2.04-.87,3.08-.1,4.24-.1,8.49-.04,12.73.03,2.29.37,2.58,2.73,2.65,2.39.07,4.79.02,7.18.04.76,0,1.54-.02,2.27.12,1.02.19,2.02.78,1.73,1.91-.16.61-1.15,1.06-1.84,1.44-.34.19-.85.08-1.29.08-6.86,0-13.71.03-20.57-.01-1.2,0-2.82.41-3.12-1.48-.21-1.33.78-1.95,3.03-2.06,1.59-.08,3.19-.16,4.64-.24.8-2.75.94-18.44.25-22.4-1.19,0-2.44,0-3.69,0-1.05,0-2.02-.25-2.23-1.45-.22-1.23.59-1.75,1.65-1.99,1.7-.38,3.38-.87,5.09-1.13,2.54-.38,2.79-.14,3.74,2.39.14.39.38.74.69,1.33.74-.45,1.36-.78,1.94-1.19,3.73-2.59,7.87-3.6,12.36-3.29,2.33.16,3.14.93,3.24,3.21.07,1.63.14,3.3-.16,4.88-.15.76-1.05,1.79-1.78,1.95-1.21.27-1.95-.74-2.13-1.95-.18-1.25-.27-2.52-.39-3.69Z"/>
</svg>